<?xml version="1.0" encoding="UTF-8"?>
<!DOCTYPE svg PUBLIC "-//W3C//DTD SVG 1.1//EN" "http://www.w3.org/Graphics/SVG/1.1/DTD/svg11.dtd">
<!-- Creator: CorelDRAW X7 -->
<svg xmlns="http://www.w3.org/2000/svg" xml:space="preserve" width="261.692mm" height="267.24mm" version="1.1" style="shape-rendering:geometricPrecision; text-rendering:geometricPrecision; image-rendering:optimizeQuality; fill-rule:evenodd; clip-rule:evenodd"
viewBox="0 0 26169 26724"
 xmlns:xlink="http://www.w3.org/1999/xlink"
 aria-hidden="true"
 focusable="false"
 data-prefix="fas"
 data-icon="book-reader"
 role="img">
 <defs>
  <style type="text/css">
   <![CDATA[
    .str0 {stroke:#BCA3C9;stroke-width:500}
    .str1 {stroke:#DBC3E8;stroke-width:500}
    .fil1 {fill:#4B235F}
    .fil2 {fill:#A17CB3}
    .fil3 {fill:#DBC3E8}
    .fil5 {fill:#DF0572}
    .fil0 {fill:#ECE4F0}
    .fil4 {fill:white;fill-rule:nonzero}
    .fil6 {fill:white;fill-rule:nonzero}
   ]]>
  </style>
 </defs>
 <g id="Layer_x0020_1">
  <metadata id="CorelCorpID_0Corel-Layer"/>
  <path class="fil0 str0" d="M6698 8121c-59,33 -120,66 -182,101 -3220,1810 1965,12608 6252,12899 111,8 216,4 317,-10 100,14 205,18 317,10 4286,-291 9471,-11089 6251,-12899 -62,-35 -123,-68 -182,-101 -2278,-711 -4477,-1554 -6354,-2364l0 -28 -32 14 -33 -14 0 28c-1877,810 -4076,1653 -6354,2364z"/>
  <path class="fil1 str1" d="M13139 428c3182,1372 6909,2800 10770,4005 101,56 203,113 309,172 5457,3068 -3331,21369 -10596,21862 -189,13 -368,7 -537,-16 -170,23 -349,29 -537,16 -7266,-493 -16054,-18794 -10596,-21862 105,-59 208,-116 308,-172 3862,-1205 7588,-2633 10770,-4005l0 -48 55 24 54 -24 0 48zm-7460 6845c-69,39 -139,78 -212,118 -3734,2099 2279,14620 7250,14958 129,9 251,5 368,-11 116,16 238,20 367,11 4971,-338 10984,-12859 7250,-14958 -73,-40 -143,-79 -211,-118 -2642,-824 -5192,-1801 -7369,-2740l0 -33 -37 17 -38 -17 0 33c-2177,939 -4726,1916 -7368,2740z"/>
  <g id="book-reader-solid.svg">
   <path class="fil2" d="M14716 10708c0,-902 -730,-1632 -1631,-1632 -902,0 -1632,730 -1632,1632 0,901 730,1631 1632,1631 901,0 1631,-730 1631,-1631zm-2012 2466c-1009,-617 -2642,-787 -3464,-834 -277,-15 -507,195 -507,461l0 3787c0,243 197,446 450,459 743,39 2244,182 3282,705 159,80 348,-29 348,-202l0 -4181c0,-80 -40,-152 -109,-195zm4225 -834c-821,47 -2455,217 -3463,834 -70,43 -109,118 -109,198l0 4177c0,174 189,283 349,203 1037,-523 2538,-665 3280,-704 253,-13 450,-216 450,-460l0 -3787c0,-266 -230,-476 -507,-461z"/>
  </g>
  <g id="_150735715008">
   <rect class="fil3" transform="matrix(0.339567 -0.339567 0.379516 0.379516 12406.1 24363.5)" width="1998" height="1788"/>
   <circle class="fil3" cx="12450" cy="23736" r="288"/>
   <circle class="fil3" cx="13772" cy="24954" r="288"/>
   <circle class="fil3" cx="13681" cy="23696" r="288"/>
   <circle class="fil3" cx="12397" cy="24948" r="288"/>
  </g>
  <path class="fil4" d="M2699 7275l-450 -1293 957 -333 76 219 -695 242 100 287 646 -225 76 218 -646 225 122 350 720 -251 76 219 -982 342zm1082 -377l164 -602 -484 -337 301 -108 257 198 83 -320 290 -103 -158 555 521 368 -301 108 -296 -220 -88 357 -289 104zm1692 -1354l-226 132c-26,-45 -58,-75 -96,-89 -38,-13 -80,-12 -126,5 -61,22 -102,61 -123,117 -21,56 -14,134 23,233 40,111 87,182 141,215 54,32 112,36 174,14 47,-17 80,-45 100,-82 20,-38 25,-91 13,-161l257 -47c16,120 -1,222 -52,305 -50,82 -135,146 -255,190 -136,49 -260,46 -373,-10 -112,-57 -196,-161 -252,-313 -56,-155 -59,-289 -10,-405 50,-115 144,-198 283,-249 113,-41 212,-49 297,-25 84,24 159,81 225,170zm855 92l260 -50c2,102 -22,189 -72,261 -51,72 -127,128 -229,166 -161,60 -301,51 -418,-25 -92,-63 -163,-158 -211,-287 -57,-154 -62,-290 -14,-407 48,-118 133,-199 256,-245 138,-51 264,-46 378,15 114,62 204,188 271,378l-615 229c29,72 70,121 123,148 53,26 108,29 164,8 38,-14 67,-37 85,-67 18,-31 25,-72 22,-124zm-79 -254c-28,-71 -67,-118 -115,-142 -49,-24 -98,-27 -149,-8 -53,19 -90,56 -110,108 -21,52 -18,112 8,179l366 -137zm646 377l-480 -1282 245 -92 481 1282 -246 92zm497 -188l-484 -1280 245 -92 484 1280 -245 92zm920 -685l260 -53c4,101 -20,189 -69,261 -50,73 -126,129 -228,168 -160,62 -300,55 -417,-21 -94,-61 -165,-156 -215,-284 -58,-154 -65,-290 -18,-407 47,-118 131,-200 254,-247 137,-53 263,-49 378,11 114,61 206,186 275,375l-613 235c30,72 71,121 125,147 53,26 107,28 163,6 39,-14 67,-37 85,-68 18,-31 25,-72 20,-123zm-81 -254c-29,-70 -68,-117 -117,-141 -49,-24 -98,-26 -148,-7 -53,21 -90,57 -109,109 -20,53 -17,112 9,179l365 -140zm1492 44l-244 95 -184 -471c-39,-100 -69,-162 -91,-187 -22,-25 -48,-41 -78,-48 -30,-8 -61,-4 -95,8 -42,17 -76,44 -101,80 -25,36 -36,76 -34,119 2,43 23,116 64,220l162 418 -244 95 -360 -925 227 -88 52 136c41,-135 123,-227 246,-274 54,-22 108,-31 160,-29 53,2 96,13 131,34 35,22 64,50 88,84 24,35 49,88 77,159l224 574zm794 -1062l-223 137c-27,-44 -59,-73 -98,-86 -38,-13 -80,-10 -125,8 -61,24 -101,64 -121,121 -20,56 -10,133 29,232 43,110 92,180 147,210 55,31 113,34 174,10 47,-18 79,-47 98,-85 19,-38 22,-91 9,-161l256 -53c19,120 4,222 -45,306 -48,84 -131,149 -250,196 -135,54 -259,53 -373,0 -113,-54 -200,-156 -260,-307 -60,-152 -66,-287 -20,-403 47,-117 139,-202 276,-257 112,-44 211,-55 296,-33 85,22 162,77 230,165zm857 71l259 -57c5,101 -17,189 -66,262 -48,74 -123,131 -224,172 -160,64 -300,59 -418,-15 -95,-59 -167,-153 -219,-281 -61,-152 -69,-288 -25,-406 45,-119 129,-203 250,-252 137,-54 263,-53 379,6 115,59 208,182 280,371l-608 244c30,71 72,120 126,145 54,25 108,26 164,4 38,-15 66,-38 83,-69 18,-32 24,-73 19,-124zm-85 -253c-30,-69 -70,-116 -119,-139 -50,-23 -99,-24 -149,-4 -53,21 -88,58 -107,111 -20,52 -15,112 12,178l363 -146z"/>
  <path class="fil4" d="M15526 3923l214 173c-94,121 -197,197 -312,228 -114,31 -238,20 -372,-34 -166,-67 -280,-178 -341,-333 -60,-155 -51,-330 29,-525 84,-206 204,-345 358,-416 154,-71 318,-71 493,-1 153,62 259,157 318,285 35,75 46,169 34,279l-273 -41c11,-70 1,-133 -31,-189 -32,-56 -81,-98 -148,-124 -93,-38 -181,-35 -266,8 -85,42 -157,137 -218,285 -64,156 -81,279 -51,368 30,89 90,152 181,189 67,27 134,29 199,6 66,-23 128,-75 186,-158zm1004 -509l-183 460c114,-61 226,-71 334,-28 56,22 102,51 139,89 36,38 60,77 70,118 10,40 11,81 4,123 -7,42 -26,103 -58,183l-211 528 -240 -94 190 -475c37,-94 56,-156 58,-185 0,-29 -8,-56 -25,-79 -18,-25 -44,-44 -79,-57 -40,-16 -80,-21 -120,-14 -39,7 -74,27 -104,60 -30,32 -60,87 -90,162l-180 451 -240 -94 496 -1242 239 94zm763 1013l-203 -122c59,-79 127,-128 204,-147 76,-19 174,-6 292,40 107,41 183,84 225,130 43,45 67,92 74,139 6,47 -11,122 -52,226l-113 276c-31,79 -50,139 -57,180 -8,41 -9,86 -5,137l-239 -92c0,-18 2,-44 5,-78 1,-16 2,-26 2,-31 -57,24 -112,37 -167,39 -54,2 -108,-7 -161,-28 -93,-36 -157,-89 -191,-160 -34,-71 -36,-145 -6,-222 20,-51 50,-92 90,-122 41,-31 87,-48 140,-52 52,-4 123,2 213,18 120,22 206,33 256,32l10 -24c18,-47 20,-84 5,-113 -16,-29 -55,-55 -119,-80 -43,-16 -79,-21 -110,-13 -31,8 -62,30 -93,67zm247 317c-35,-1 -89,-8 -161,-20 -72,-11 -122,-14 -148,-9 -40,11 -66,32 -80,66 -13,34 -11,67 4,101 16,34 43,59 82,74 43,16 90,18 141,5 37,-10 67,-29 88,-57 14,-18 33,-55 55,-112l19 -48zm535 702l-241 -92 352 -903 223 85 -50 128c62,-46 112,-72 150,-79 39,-7 77,-3 116,12 55,21 102,56 141,105l-156 180c-30,-42 -63,-69 -98,-83 -33,-13 -66,-14 -96,-5 -31,10 -62,36 -95,79 -32,43 -78,141 -138,294l-108 279zm874 -385l-204 -121c59,-79 126,-128 203,-148 76,-20 174,-7 292,37 108,41 183,84 227,129 42,45 67,91 74,138 6,47 -10,122 -50,226l-111 278c-31,79 -49,139 -56,180 -7,41 -8,87 -4,137l-239 -90c0,-18 1,-44 4,-78 1,-16 2,-26 2,-31 -57,24 -112,38 -167,40 -54,2 -108,-6 -161,-26 -94,-36 -158,-89 -193,-160 -34,-70 -37,-145 -7,-222 20,-51 50,-92 90,-122 40,-31 86,-49 138,-53 53,-5 124,1 214,16 120,22 206,32 257,30l9 -24c18,-46 19,-84 4,-113 -16,-28 -55,-54 -119,-78 -43,-17 -80,-21 -110,-13 -31,8 -62,31 -93,68zm249 315c-35,-1 -88,-7 -161,-19 -72,-11 -122,-13 -147,-8 -40,11 -67,33 -80,67 -13,34 -12,67 4,101 16,34 43,58 82,73 44,16 91,18 141,5 38,-11 67,-30 88,-58 14,-18 33,-56 55,-113l18 -48zm1348 270l-254 -46c9,-50 5,-92 -15,-126 -19,-35 -52,-60 -97,-77 -60,-22 -116,-20 -168,8 -51,28 -95,91 -132,188 -41,107 -51,190 -32,248 20,58 60,98 121,121 46,17 89,18 128,3 39,-15 76,-52 112,-111l223 129c-66,99 -144,163 -235,192 -91,30 -195,23 -313,-21 -133,-50 -224,-131 -271,-244 -48,-114 -44,-244 12,-393 57,-150 141,-251 252,-305 111,-54 235,-56 371,-5 111,41 190,98 238,170 48,72 68,161 60,269zm701 -48l-71 191 -166 -61 -138 367c-28,75 -43,119 -45,132 -1,14 2,26 11,39 8,12 20,21 36,27 23,8 58,12 106,13l-50 194c-65,3 -133,-9 -204,-35 -43,-16 -80,-38 -109,-65 -30,-28 -48,-56 -56,-85 -8,-29 -7,-65 1,-107 6,-29 25,-87 57,-172l149 -397 -111 -41 71 -191 111 41 68 -180 295 -52 -121 321 166 61zm465 875l228 128c-64,76 -138,125 -222,147 -84,22 -176,14 -277,-22 -159,-58 -258,-152 -296,-283 -30,-105 -22,-221 25,-347 55,-151 139,-255 250,-311 110,-57 227,-63 348,-19 136,49 227,133 273,251 46,118 33,268 -38,451l-607 -219c-25,72 -26,134 -3,187 23,54 62,90 117,110 38,14 74,15 107,4 34,-11 65,-37 95,-77zm104 -239c24,-70 26,-130 5,-179 -21,-49 -56,-82 -106,-100 -53,-19 -103,-15 -152,10 -49,26 -85,72 -108,138l361 131zm476 772l-243 -86 329 -912 225 80 -46 130c60,-48 110,-76 148,-84 37,-8 76,-5 115,9 56,20 104,54 144,103l-151 183c-31,-41 -65,-67 -100,-80 -34,-12 -67,-13 -97,-3 -30,10 -61,37 -92,81 -31,44 -75,143 -131,298l-101 281z"/>
  <g id="_150735717408">
   <rect class="fil3" transform="matrix(0.339567 -0.339567 0.379516 0.379516 12406.1 2512)" width="1998" height="1788"/>
   <circle class="fil3" cx="12450" cy="1884" r="288"/>
   <circle class="fil3" cx="13772" cy="3102" r="288"/>
   <circle class="fil3" cx="13681" cy="1845" r="288"/>
   <circle class="fil3" cx="12397" cy="3096" r="288"/>
  </g>
  <path class="fil4" d="M18332 20275c19,68 46,133 80,191 67,115 106,187 119,218l2 9c-10,-3 -16,-5 -21,-7 -73,-27 -124,-43 -156,-48 -32,-6 -67,-5 -106,2 -98,19 -176,66 -235,142 -53,69 -79,142 -76,219 3,76 33,136 92,181 109,84 247,59 414,-75l167 -134c238,-191 453,-213 644,-66 106,82 164,192 175,328 10,136 -31,263 -122,382 -57,74 -133,148 -226,222l-116 93c-46,38 -81,71 -104,101 -31,40 -50,90 -58,152l-20 -3c-59,-174 -131,-320 -216,-438l19 -13c112,65 223,85 333,60 109,-24 206,-91 291,-202 68,-87 101,-172 100,-254 -1,-82 -35,-150 -103,-203 -79,-60 -171,-75 -278,-43 -76,23 -191,103 -345,237 -119,105 -228,163 -326,175 -99,12 -198,-20 -297,-97 -103,-79 -158,-181 -165,-304 -7,-123 36,-244 127,-362 59,-76 141,-155 246,-235 50,-38 83,-68 101,-91 25,-32 40,-75 47,-130l13 -7zm88 -29l8 21c24,61 50,117 77,168 60,119 94,186 100,200l3 11 -27 15 -6 -10c-29,-52 -64,-123 -105,-212l-78 -166 -4 -11 32 -16zm-26 435c-132,13 -229,60 -293,143 -39,49 -56,102 -53,156 4,55 28,100 72,134 48,37 124,42 226,14l11 -4 4 11c-105,57 -194,57 -267,1 -50,-40 -77,-90 -81,-151 -4,-61 17,-121 62,-179 44,-56 93,-96 149,-119 57,-24 114,-29 172,-16l-2 10zm561 75c135,-37 261,-10 378,80 124,96 192,225 203,388 12,163 -35,313 -141,451 -54,70 -111,128 -169,173l-159 127c-37,29 -72,64 -104,106 -29,37 -47,77 -56,120l-38 -10c10,-47 29,-87 56,-123 30,-38 70,-78 121,-120l153 -122c60,-49 116,-106 168,-172 100,-131 144,-274 132,-429 -12,-156 -77,-279 -195,-369 -99,-77 -214,-109 -343,-95l-6 -5zm-256 911c136,67 269,66 398,-1l8 6c-129,94 -269,102 -421,25l15 -30zm-410 -122l44 -19c55,8 135,-30 241,-114l161 -127c109,-86 186,-139 233,-160 46,-21 95,-23 145,-8l-1 10c-56,3 -106,15 -148,37 -41,23 -111,73 -209,153 -141,115 -242,187 -303,217 -60,30 -115,34 -163,11zm935 -2458l11 25c61,136 128,263 201,383l17 25 -16 8c-113,-57 -218,-80 -318,-66 -100,13 -178,59 -236,139 -61,85 -76,182 -43,292 40,138 170,286 390,445 189,136 360,211 515,222 154,12 274,-41 358,-158 68,-93 91,-190 69,-290 -22,-101 -86,-198 -194,-292 -26,-23 -31,-45 -17,-65 19,-26 50,-23 93,8 64,47 121,110 169,189 101,168 82,349 -59,543 -125,173 -285,267 -481,281 -195,13 -396,-54 -603,-204 -191,-138 -313,-307 -366,-506 -52,-200 -22,-378 92,-535 54,-75 134,-147 239,-215 56,-36 95,-71 119,-103 25,-35 38,-74 39,-116l21 -10zm-36 415c-93,25 -159,64 -197,118 -125,172 -22,377 307,615 150,108 289,178 417,211 129,32 233,23 315,-28l10 7c-73,67 -179,86 -317,57 -139,-29 -289,-102 -449,-218 -344,-249 -448,-468 -312,-656 46,-64 117,-103 213,-115l13 9zm921 171c157,130 250,267 277,411 28,144 -12,289 -118,435 -80,112 -189,190 -327,237l-8 -6c117,-45 220,-127 307,-248 95,-132 131,-270 106,-414 -11,-71 -36,-134 -73,-191 -38,-56 -96,-118 -176,-186l-21 -19 33 -19zm-784 -623l12 24c71,163 142,302 213,419l-33 18 -17 -29c-46,-84 -83,-156 -110,-214l-84 -182 -11 -24 30 -12zm-85 -81l312 -489 48 230 450 287c12,-14 26,-31 41,-52l-445 -284 -40 -185 32 -9 38 175 434 276 25 -32c39,-50 75,-99 106,-149 46,-72 82,-136 108,-193l-479 -305 -197 52 307 -481 47 232 1082 691 193 -53 -305 478 -31 -220 -440 -281c-23,67 -54,131 -93,193 -38,58 -80,116 -126,174l-10 14 439 280 307 -45 -343 538 -45 9 324 -507 -246 42 -478 -305 22 -28c66,-87 112,-150 138,-191 43,-67 70,-131 82,-192l-37 -24c-32,71 -75,150 -130,237 -30,46 -52,79 -68,99l-77 99c-3,3 -9,11 -17,22l515 329 197 -61 -307 481 -32 -217 -454 -290c-37,58 -44,119 -21,183l-24 15c-25,-72 -18,-144 19,-215l-39 -24c-49,77 -59,158 -29,240l-20 9c-74,-105 -90,-209 -49,-312l-468 -299 -216 58zm826 -1165l35 172 1060 677 307 -47 -343 539 -45 8 323 -505 -246 38 -1082 -691 -42 -188 33 -3zm676 -769l-21 13c-77,46 -132,98 -164,155 -107,188 24,387 393,597 271,154 483,198 637,132l5 16c-91,42 -186,55 -286,38 -100,-16 -220,-65 -360,-145 -397,-226 -535,-443 -417,-650 54,-96 125,-147 213,-156zm-383 86c99,-174 244,-275 434,-304 191,-30 396,19 616,144 208,118 344,263 409,436 65,173 49,346 -50,519 -78,137 -190,234 -338,291 -218,83 -452,53 -705,-91 -215,-122 -356,-274 -422,-453 -66,-179 -47,-360 56,-542zm92 53c-138,242 5,484 428,725 391,223 655,214 791,-25 63,-111 60,-225 -11,-342 -70,-117 -206,-232 -405,-346 -226,-128 -399,-190 -520,-185 -126,6 -220,64 -283,173zm157 -364c107,-74 238,-107 391,-98 153,8 307,57 464,146 230,131 382,295 457,492 75,197 58,391 -50,581 -69,121 -175,212 -316,271l-6 -3c115,-52 211,-144 287,-278 102,-179 119,-365 49,-557 -69,-192 -209,-348 -419,-467 -156,-89 -308,-141 -455,-155 -147,-14 -277,11 -390,75l-12 -7zm874 -1128l-21 13c-76,48 -129,101 -161,159 -102,190 34,386 408,588 274,148 487,187 639,117l6 16c-91,44 -185,59 -286,45 -99,-15 -221,-61 -363,-137 -401,-217 -545,-430 -431,-641 52,-96 121,-149 209,-160zm-381 95c95,-176 238,-281 427,-315 190,-33 397,10 619,130 210,114 350,256 419,427 69,172 56,345 -38,520 -75,139 -185,238 -332,298 -215,88 -451,64 -706,-74 -218,-118 -362,-266 -432,-444 -70,-177 -56,-359 43,-542zm94 50c-133,246 15,484 444,715 396,214 659,200 790,-42 61,-113 54,-227 -19,-342 -73,-116 -211,-228 -413,-337 -228,-123 -403,-181 -524,-173 -126,9 -219,68 -278,179zm147 -367c106,-77 236,-113 389,-108 153,5 309,51 467,136 233,126 389,286 469,482 79,195 67,389 -37,582 -66,123 -170,215 -310,278l-6 -3c114,-54 208,-149 281,-285 98,-181 110,-367 36,-558 -73,-190 -217,-342 -430,-457 -158,-85 -311,-134 -458,-144 -148,-11 -277,17 -388,84l-13 -7zm142 -390l255 -530 77 230 1188 570 5 -9 22 -38 5 -10 -1181 -567 -64 -178 32 -4 59 161 1167 561c19,-32 36,-63 51,-94 56,-118 73,-219 50,-305 -24,-85 -90,-167 -200,-245 235,27 408,22 517,-16l-557 1159 -51 -213 -1160 -557 -215 85zm2027 -588l76 98 -557 1159 -43 14 564 -1176 -54 -65c-140,33 -282,45 -429,35l-14 -2 30 -29 23 1c134,3 263,-7 389,-32l15 -3zm-957 -1676c35,63 76,119 122,168 92,96 147,158 166,185l4 8c-10,0 -17,-1 -22,-1 -77,-10 -131,-14 -163,-12 -32,2 -66,11 -102,27 -91,40 -157,104 -197,191 -36,80 -44,157 -24,231 20,73 64,125 131,155 125,58 254,1 386,-167l132 -169c188,-241 392,-311 612,-211 122,55 204,148 245,279 41,130 31,263 -31,399 -39,85 -95,175 -169,268l-92 117c-37,47 -63,88 -78,123 -21,45 -28,99 -22,161l-20 2c-97,-157 -201,-283 -310,-377l15 -18c124,38 237,32 337,-17 101,-49 181,-137 238,-263 46,-101 59,-191 39,-271 -19,-80 -68,-138 -147,-173 -90,-42 -183,-35 -280,21 -68,40 -163,143 -282,310 -92,129 -184,210 -277,244 -94,35 -197,26 -312,-26 -118,-54 -194,-140 -229,-259 -35,-118 -22,-245 40,-381 40,-88 102,-183 187,-285 39,-48 65,-85 77,-111 17,-37 22,-83 15,-138l11 -10zm80 -48l12 18c38,55 76,103 113,146 87,103 134,160 144,173l6 9 -24 22 -8 -9c-40,-44 -90,-105 -150,-183l-114 -143 -6 -10 27 -23zm74 430c-125,42 -210,111 -253,206 -26,57 -31,112 -15,164 16,53 49,90 100,114 56,25 130,12 224,-38l10 -7 6 10c-89,79 -176,100 -260,62 -58,-27 -96,-70 -114,-128 -17,-59 -10,-122 20,-189 30,-64 69,-114 118,-150 49,-37 104,-54 163,-54l1 10zm563 -56c123,-67 252,-69 386,-8 143,65 239,175 287,331 49,156 38,313 -34,471 -37,81 -79,150 -125,208l-126 159c-29,37 -55,79 -77,127 -19,43 -28,86 -28,130l-38 -1c-1,-48 8,-92 26,-132 20,-45 51,-93 90,-145l121 -154c48,-61 89,-130 124,-206 68,-150 79,-299 31,-448 -47,-148 -139,-253 -274,-315 -114,-52 -233,-56 -356,-14l-7 -3zm-40 946c147,34 276,3 387,-92l9 4c-104,121 -239,161 -404,121l8 -33zm-427 -25l38 -29c56,-4 125,-60 208,-166l128 -161c86,-108 150,-178 190,-209 41,-30 87,-44 140,-41l1 10c-54,16 -99,40 -135,71 -36,31 -92,96 -169,196 -111,144 -193,238 -245,281 -53,43 -105,59 -156,48z"/>
  <circle class="fil5" cx="13085" cy="10737" r="1754"/>
  <path class="fil6" d="M3569 12302l-502 -103c121,-49 206,-114 254,-196 49,-82 59,-176 30,-281 -41,-150 -131,-251 -270,-303 -139,-51 -314,-48 -523,9 -461,126 -640,378 -537,756l53 193 620 -170 -83 -302c-18,-65 -27,-113 -28,-143 -1,-30 8,-62 24,-95l29 -8c-13,35 -19,67 -18,98 1,30 11,78 28,143l82 298 64 -18 -91 -332 -15 -54c-33,-120 -6,-191 81,-215 33,-9 65,-7 95,6 29,14 48,35 55,63 6,21 3,42 -7,61 -11,20 -27,33 -48,39 -35,9 -59,2 -72,-23l-14 -28c-5,-9 -10,-12 -16,-11 -10,3 -12,18 -4,44l11 42 215 789 -206 -121 -588 161 -91 189 -167 -611 -33 -121c-27,-101 -38,-188 -31,-261 6,-73 32,-152 76,-237 103,-201 278,-334 524,-402 254,-69 473,-48 657,65 162,98 267,238 317,420 22,81 33,179 34,291 0,116 5,191 15,225 14,51 41,98 80,143zm-55 93l-458 -95 5 -32 460 96 -7 31zm-287 -333l10 -26c39,-108 48,-200 27,-275 -25,-91 -79,-161 -161,-210 -61,-35 -133,-52 -216,-52 -83,0 -188,17 -315,51 -161,45 -280,94 -356,150 -77,55 -138,135 -183,240l-13 3c30,-108 89,-196 178,-264 89,-68 219,-126 391,-173 189,-51 345,-56 470,-13 124,42 204,128 239,256 30,112 9,216 -64,311l-7 2zm-297 571l-157 -89 -562 153 -173 261 -127 -475 -120 -429c-8,-27 -13,-48 -15,-63 -8,-52 -1,-108 22,-169l7 25c-8,60 1,138 27,232l16 59 203 744 139 -213 586 -161 176 98 -22 27zm626 3c168,153 286,336 355,552 54,166 62,316 24,448 -37,131 -112,215 -224,251 -91,29 -184,20 -277,-29 -93,-48 -175,-128 -247,-241 -132,102 -254,223 -365,362 -112,138 -191,267 -236,385l-12 -16c-78,-104 -171,-201 -281,-290l-17 -14 36 -18c289,-148 524,-302 707,-461l10 -8c-42,-46 -86,-113 -130,-199l-5 -9 -441 142 -156 279 -196 -611 25 -29 181 563 127 -231 476 -153 12 24c38,87 80,156 126,209 7,-8 12,-13 15,-14l30 -23c2,-2 6,-5 12,-11 -29,-44 -74,-131 -135,-262l-6 -12 -527 169 -97 181 -168 -523 190 110 397 -128 -4 -9c-25,-43 -50,-80 -75,-114l-6 -8 20 -18c25,30 43,55 54,73l35 58 6 9 61 -20c-15,-47 -44,-101 -87,-164l-9 -12c12,-2 40,-3 85,-1 3,1 23,0 58,-1 3,0 7,0 12,0 9,36 17,64 23,84 7,21 15,40 22,58l582 -187c11,-43 17,-87 20,-130l0 -11zm145 347l-637 205c7,23 16,44 27,63l582 -187c26,40 49,90 68,150 49,154 32,275 -51,363 29,-74 45,-136 49,-186 4,-49 -4,-105 -24,-166 -16,-49 -34,-89 -56,-122l-558 179 6 13c78,146 160,247 245,302 85,56 176,68 274,37 87,-28 148,-85 183,-171 35,-86 36,-181 3,-285 -27,-83 -63,-148 -111,-195zm-525 799c-147,102 -277,240 -392,416 -71,110 -126,238 -165,383 -106,-165 -233,-311 -383,-438l-10 -8 11 -30c147,119 271,256 372,412 78,-276 263,-532 553,-768l18 -14c168,210 346,286 534,226 77,-25 152,-83 223,-174 -47,103 -126,172 -238,208 -181,58 -356,-13 -523,-213zm1074 1170l4 -25c12,-90 5,-165 -19,-227 -81,-201 -320,-223 -717,-64 -291,116 -459,256 -503,418l-16 -5c24,-99 74,-182 150,-250 75,-68 189,-132 340,-192 426,-171 684,-144 773,80 41,102 37,190 -12,265zm173 -356c75,187 64,365 -33,533 -96,169 -263,300 -499,395 -223,89 -423,105 -600,48 -177,-58 -303,-179 -377,-365 -59,-147 -65,-296 -17,-449 71,-223 242,-389 513,-497 232,-93 439,-109 622,-49 182,61 313,189 391,384zm-99 40c-104,-261 -384,-300 -839,-118 -421,168 -580,381 -477,638 48,119 140,188 276,206 137,18 313,-16 527,-102 243,-97 400,-195 472,-293 74,-104 88,-214 41,-331zm188 351c-9,131 -65,255 -167,370 -103,115 -238,206 -407,273 -247,99 -472,116 -674,52 -202,-65 -344,-200 -426,-404 -52,-131 -57,-271 -15,-419l6 -3c-32,123 -19,257 39,401 77,193 213,322 408,388 194,66 404,53 630,-37 168,-67 304,-155 407,-262 104,-107 166,-225 186,-354l13 -5zm356 1309l2 -24c5,-91 -7,-166 -36,-225 -95,-195 -335,-199 -720,-11 -281,137 -438,289 -470,454l-16 -5c16,-99 60,-186 130,-259 70,-74 179,-146 325,-217 413,-202 672,-194 777,22 49,99 51,187 8,265zm146 -367c89,181 91,359 7,534 -84,175 -240,319 -469,430 -216,106 -414,137 -595,93 -181,-44 -315,-156 -403,-336 -69,-143 -86,-291 -50,-446 55,-229 213,-407 475,-535 224,-109 430,-140 617,-94 186,47 326,166 418,354zm-96 47c-123,-252 -405,-271 -845,-56 -407,199 -550,423 -429,672 57,115 154,177 291,185 138,8 310,-39 518,-141 235,-114 384,-224 449,-327 66,-108 72,-219 16,-333zm214 336c1,132 -46,259 -140,381 -94,123 -222,224 -385,303 -239,117 -462,151 -668,101 -207,-49 -359,-173 -455,-371 -62,-126 -77,-266 -46,-417l6 -3c-23,125 0,257 68,397 91,186 237,305 435,357 199,51 408,23 627,-84 162,-79 291,-176 386,-291 96,-114 149,-236 159,-367l13 -6zm1040 1749l-235 -58 -1097 646 -49 206 -289 -492 213 74 718 -423 -1131 211 -60 -103 23 -25 55 93 1204 -230 164 -97 -1331 250 -44 -74 689 -800 -564 332c-76,45 -126,82 -151,110 -26,28 -47,72 -62,131l-67 169 -330 -561 17 -36 310 526 36 -74 -282 -478 25 16c91,53 165,79 225,78 59,-1 137,-30 234,-87l883 -521 50 -219 326 554 -231 -72 -716 829 115 -16 632 -741 186 79 -5 33 -172 -78 -596 693 925 -174 63 -213 319 542zm-967 -1060l-766 452c-118,69 -192,128 -223,177 -30,48 -35,114 -13,197l10 -19c7,-99 56,-175 147,-229l79 -47 631 -372 135 -159zm919 1169l-158 -69 -1078 635 -101 311 -335 -569 19 -31 305 517 80 -248 1112 -655 161 76 -5 33zm86 -42l742 1051c-85,-3 -150,-2 -195,3 -44,4 -111,18 -201,40l-26 6c61,-109 89,-196 86,-258 -4,-63 -42,-146 -115,-249l-42 -56 -69 -99 -25 -38 -475 336 42 60 420 -296 22 29c31,40 64,84 97,131 97,138 122,249 75,334 9,-55 5,-107 -11,-154 -16,-47 -53,-111 -110,-192 -20,-29 -48,-64 -83,-104l-392 277 108 153 287 41 -427 301 47 -289 -162 -230 -508 359 -41 220 -351 -496 248 73 434 -306c-37,-52 -89,-84 -156,-96l8 -34c71,9 129,46 175,110l47 -33c-8,-15 -15,-26 -19,-32 -45,-63 -108,-99 -192,-109l11 -18c111,-33 206,0 287,98l429 -303 35 -230zm734 1173c-182,-17 -328,-5 -440,37l-1 -32c125,-49 273,-61 445,-36l-4 31zm-582 -59l-437 309 -4 -37 438 -309 3 37zm-433 33l-147 -207 -435 307 -95 334 -414 -586 9 -45 392 555 79 -275 473 -334 144 203 -6 48zm1050 -68l352 470 -234 -32 -1035 775 -11 204 -346 -462 217 52 1036 -776 21 -231zm330 558l-177 -26 -1012 758 -61 307 -386 -515 8 -44 360 480 49 -247 1032 -772 194 27 -7 32zm947 1012l-31 0c-133,2 -267,28 -402,76 10,-18 16,-32 21,-41 46,-99 64,-178 53,-236 -11,-59 -60,-139 -147,-242 -40,-48 -90,-103 -149,-167l-438 369 49 59 388 -327c45,44 86,89 123,133 68,80 109,146 125,199 15,53 10,115 -14,186 -2,-14 -2,-24 -2,-31 -3,-86 -10,-143 -22,-173 -11,-29 -46,-77 -102,-145 -18,-20 -49,-55 -96,-105l-18 -19 -362 305 148 176 273 -19 -408 343 54 -256 -217 -257 -533 449 50 58 487 -411 174 207 -2 44 -176 -208 -464 391c109,130 196,214 261,254 64,39 137,51 216,37l130 -23c5,-1 15,-3 30,-6 -56,75 -94,142 -115,202 -21,60 -36,141 -45,244l-896 -1063 231 52 425 -358c-51,-48 -108,-82 -171,-102l9 -30c59,15 121,53 185,112l45 -37c-8,-12 -14,-20 -17,-25 -55,-64 -128,-103 -219,-117 124,-55 230,-31 317,73l407 -343 -8 -240 853 1012zm-29 101l-14 0c-168,11 -299,32 -391,66l7 -33c133,-40 269,-61 407,-63l-9 30zm-551 -13l-420 354 -7 -34 419 -353 8 33zm-496 1091l-127 22 -873 -1035 13 -37 875 1038 87 -18c7,-162 43,-301 107,-419l14 39c-51,104 -83,230 -94,381l-2 29zm1136 -1120l420 417 -244 -2 -935 941 7 7 29 34 8 8 929 -935 190 -2 -7 32 -172 2 -919 925c24,28 48,55 72,79 94,92 185,141 274,148 89,6 189,-30 299,-109 -104,215 -156,380 -156,497l-918 -913 220 22 913 -919 -10 -232zm-110 2121l-119 40 -918 -913 1 -45 931 925 81 -30c14,-144 50,-283 108,-419l6 -13 18 38 -9 22c-47,126 -80,252 -98,380l-1 15zm1051 -1185l365 322c179,157 282,308 307,453 38,215 -38,431 -230,649 -198,225 -398,339 -599,340 -90,1 -175,-17 -255,-54 -79,-37 -171,-101 -275,-193l-394 -347 214 14 871 -988 -4 -196zm212 329l-919 1042 50 44 865 -981c37,23 68,46 95,70 51,44 86,85 107,121 20,36 33,81 39,135 -38,-90 -95,-167 -170,-234 -16,-14 -39,-31 -67,-51l-846 960c69,61 127,102 173,122 46,20 99,28 160,23 170,-12 350,-125 539,-340 185,-210 264,-396 235,-558 -18,-98 -90,-203 -217,-315l-44 -38zm-1302 968l8 -37 340 300c168,148 315,236 443,266 275,66 537,-44 788,-329 168,-191 251,-369 249,-535l-1 -74c0,-3 0,-10 0,-23 59,198 -15,414 -221,647 -216,246 -440,369 -672,370 -179,1 -381,-98 -608,-297l-326 -288z"/>
 </g>
</svg>
