<?xml version="1.0" encoding="UTF-8"?>
<!DOCTYPE svg PUBLIC "-//W3C//DTD SVG 1.1//EN" "http://www.w3.org/Graphics/SVG/1.1/DTD/svg11.dtd">
<!-- Creator: CorelDRAW X7 -->
<svg xmlns="http://www.w3.org/2000/svg" xml:space="preserve" width="50.8444mm" height="50.833mm" version="1.1" style="shape-rendering:geometricPrecision; text-rendering:geometricPrecision; image-rendering:optimizeQuality; fill-rule:evenodd; clip-rule:evenodd"
viewBox="0 0 9422 9419"
 xmlns:xlink="http://www.w3.org/1999/xlink"
 aria-hidden="true"
 focusable="false"
 data-prefix="fab"
 data-icon="instagram"
 role="img">
 <defs>
  <style type="text/css">
   <![CDATA[
    .fil0 {fill:#DE0472}
   ]]>
  </style>
 </defs>
 <g id="Layer_x0020_1">
  <metadata id="CorelCorpID_0Corel-Layer"/>
  <g id="_411714156560">
   <path class="fil0" d="M4712 2295c-1337,0 -2415,1078 -2415,2415 0,1337 1078,2415 2415,2415 1337,0 2415,-1078 2415,-2415 0,-1337 -1078,-2415 -2415,-2415zm0 3985c-864,0 -1570,-704 -1570,-1570 0,-866 704,-1570 1570,-1570 866,0 1570,704 1570,1570 0,866 -706,1570 -1570,1570zm3077 -4084c0,313 -252,563 -563,563 -314,0 -564,-252 -564,-563 0,-311 253,-563 564,-563 311,0 563,252 563,563zm1599 572c-35,-755 -208,-1423 -760,-1974 -551,-551 -1219,-723 -1974,-761 -778,-44 -3109,-44 -3886,0 -753,36 -1421,208 -1974,759 -553,551 -723,1219 -761,1974 -44,777 -44,3108 0,3886 36,754 208,1423 761,1973 553,551 1219,724 1974,761 777,45 3108,45 3886,0 755,-35 1423,-208 1974,-761 550,-550 723,-1219 760,-1973 45,-778 45,-3107 0,-3884zm-1004 4718c-164,412 -482,730 -896,896 -620,246 -2091,189 -2776,189 -685,0 -2159,54 -2777,-189 -412,-164 -729,-482 -895,-896 -246,-620 -189,-2091 -189,-2776 0,-685 -55,-2159 189,-2777 164,-412 481,-729 895,-895 620,-246 2092,-189 2777,-189 685,0 2158,-55 2776,189 412,164 730,481 896,895 246,620 189,2092 189,2777 0,685 57,2158 -189,2776z"/>
  </g>
 </g>
</svg>
