<?xml version="1.0" encoding="UTF-8"?>
<!DOCTYPE svg PUBLIC "-//W3C//DTD SVG 1.1//EN" "http://www.w3.org/Graphics/SVG/1.1/DTD/svg11.dtd">
<!-- Creator: CorelDRAW X7 -->
<svg xmlns="http://www.w3.org/2000/svg" xml:space="preserve" width="162.314mm" height="166.264mm" version="1.1" style="shape-rendering:geometricPrecision; text-rendering:geometricPrecision; image-rendering:optimizeQuality; fill-rule:evenodd; clip-rule:evenodd"
viewBox="0 0 16231 16626"
 xmlns:xlink="http://www.w3.org/1999/xlink">
 <defs>
  <style type="text/css">
   <![CDATA[
    .str0 {stroke:#BCA3C9;stroke-width:500}
    .str1 {stroke:#DBC3E8;stroke-width:500}
    .fil1 {fill:#4B235F}
    .fil2 {fill:#A17CB3}
    .fil3 {fill:#DBC3E8}
    .fil5 {fill:#DF0572}
    .fil0 {fill:#ECE4F0}
    .fil4 {fill:white;fill-rule:nonzero}
   ]]>
  </style>
 </defs>
 <g id="Layer_x0020_1">
  <metadata id="CorelCorpID_0Corel-Layer"/>
  <path class="fil0 str0" d="M4451 5336c-34,19 -69,38 -104,58 -1848,1039 1127,7234 3587,7401 64,5 124,2 182,-6 57,8 118,11 182,6 2459,-167 5434,-6362 3587,-7401 -36,-20 -71,-39 -105,-58 -1307,-408 -2569,-892 -3646,-1356l0 -16 -18 8 -19 -8 0 16c-1077,464 -2339,948 -3646,1356z"/>
  <path class="fil1 str1" d="M8149 414c1950,841 4234,1716 6600,2455 62,34 125,69 190,105 3344,1880 -2042,13096 -6494,13398 -116,8 -226,5 -329,-10 -104,15 -214,18 -329,10 -4453,-302 -9839,-11518 -6494,-13398 64,-36 127,-71 189,-105 2367,-739 4650,-1614 6600,-2455l0 -29 34 14 33 -14 0 29zm-4572 4195c-42,24 -85,48 -130,72 -2288,1287 1397,8960 4443,9168 79,5 154,3 226,-7 71,10 146,12 225,7 3046,-208 6731,-7881 4443,-9168 -45,-24 -88,-48 -129,-72 -1620,-505 -3182,-1104 -4516,-1679l0 -20 -23 10 -23 -10 0 20c-1335,575 -2897,1174 -4516,1679z"/>
  <g id="book-reader-solid.svg">
   <path class="fil2" d="M9115 6714c0,-553 -447,-1000 -999,-1000 -553,0 -1000,447 -1000,1000 0,552 447,1000 1000,1000 552,0 999,-448 999,-1000zm-1233 1512c-618,-379 -1619,-483 -2123,-512 -169,-9 -310,120 -310,283l0 2321c0,149 120,273 275,281 456,24 1376,112 2012,432 97,49 213,-18 213,-124l0 -2562c0,-49 -24,-93 -67,-119zm2590 -512c-503,29 -1505,133 -2123,512 -43,26 -66,72 -66,121l0 2560c0,106 115,173 213,124 636,-320 1556,-407 2011,-431 155,-8 275,-133 275,-282l0 -2321c0,-163 -141,-292 -310,-283z"/>
  </g>
  <g id="_822278118848">
   <rect class="fil3" transform="matrix(0.208105 -0.208105 0.232588 0.232588 7699.78 15083.1)" width="1998" height="1788"/>
   <circle class="fil3" cx="7727" cy="14699" r="177"/>
   <circle class="fil3" cx="8537" cy="15445" r="177"/>
   <circle class="fil3" cx="8481" cy="14674" r="177"/>
   <circle class="fil3" cx="7694" cy="15441" r="177"/>
  </g>
  <path class="fil4" d="M1751 4610l-276 -792 586 -204 47 134 -426 148 61 176 396 -138 47 134 -396 138 75 214 441 -153 47 134 -602 209zm663 -231l100 -369 -296 -206 184 -66 158 121 51 -196 177 -63 -97 340 320 225 -185 67 -181 -135 -54 219 -177 63zm1037 -830l-139 81c-16,-27 -35,-46 -59,-54 -23,-8 -49,-8 -77,3 -37,13 -62,37 -75,72 -13,34 -9,82 14,142 24,68 53,112 86,132 33,20 69,22 107,9 29,-11 49,-28 61,-50 13,-24 16,-56 8,-99l158 -29c10,74 -1,136 -32,187 -31,50 -83,89 -156,116 -84,30 -160,29 -229,-6 -69,-35 -120,-98 -154,-192 -35,-95 -37,-177 -7,-248 31,-70 89,-121 174,-152 69,-25 130,-30 182,-16 51,15 97,50 138,104zm524 57l159 -31c1,63 -13,116 -44,160 -31,44 -78,79 -140,102 -99,37 -185,31 -257,-15 -56,-39 -99,-97 -129,-176 -35,-95 -38,-178 -8,-250 29,-72 81,-122 156,-150 85,-31 162,-28 232,9 70,38 125,116 166,232l-377 140c18,44 43,74 76,91 32,16 66,18 100,5 24,-9 41,-23 52,-41 11,-19 16,-44 14,-76zm-49 -156c-17,-43 -41,-72 -70,-87 -30,-15 -60,-16 -91,-5 -33,12 -56,35 -68,66 -13,32 -11,69 5,110l224 -84zm396 231l-294 -785 150 -57 295 786 -151 56zm305 -115l-297 -784 150 -57 297 785 -150 56zm564 -420l159 -32c2,62 -12,116 -42,160 -31,44 -77,79 -140,103 -98,38 -184,33 -256,-13 -57,-38 -101,-96 -131,-174 -36,-95 -40,-178 -11,-250 28,-72 80,-122 155,-151 84,-33 162,-30 232,7 70,37 126,114 169,230l-376 144c18,44 43,74 76,90 33,16 66,17 100,3 24,-8 41,-22 52,-41 11,-19 16,-45 13,-76zm-50 -155c-18,-43 -42,-72 -72,-87 -30,-15 -60,-16 -90,-4 -33,13 -56,35 -67,67 -12,32 -11,68 5,109l224 -85zm914 27l-149 58 -113 -289c-24,-61 -42,-99 -56,-114 -13,-16 -29,-26 -47,-30 -19,-5 -38,-2 -59,5 -25,10 -46,27 -62,49 -15,22 -22,47 -20,73 1,26 14,71 39,135l99 256 -149 58 -221 -567 139 -54 32 84c25,-83 75,-139 151,-168 33,-14 66,-19 98,-18 32,1 59,8 80,21 21,13 39,30 54,51 15,22 30,54 47,98l137 352zm487 -651l-137 84c-16,-27 -36,-45 -60,-53 -23,-8 -49,-6 -76,5 -38,15 -62,39 -74,74 -13,34 -7,82 17,142 27,68 57,110 90,129 34,19 70,21 107,6 29,-11 48,-29 60,-52 12,-23 14,-56 6,-99l157 -32c11,73 2,136 -28,187 -29,52 -80,92 -153,120 -83,34 -159,33 -229,0 -69,-33 -122,-95 -159,-188 -37,-93 -41,-176 -12,-247 28,-71 85,-124 169,-157 68,-27 129,-34 181,-20 52,13 99,47 141,101zm525 43l159 -35c3,62 -10,116 -40,161 -30,45 -76,80 -138,105 -98,39 -184,36 -256,-9 -58,-36 -102,-94 -134,-172 -38,-93 -42,-177 -15,-249 27,-73 79,-124 153,-154 84,-34 161,-33 232,3 71,36 128,112 172,228l-373 149c18,44 44,74 77,89 33,15 66,16 101,2 23,-9 40,-23 51,-42 11,-19 14,-45 11,-76zm-52 -155c-18,-42 -43,-71 -73,-85 -30,-14 -60,-15 -91,-2 -33,12 -54,35 -66,68 -12,31 -9,68 8,109l222 -90z"/>
  <path class="fil4" d="M9612 2556l131 106c-58,74 -121,121 -191,140 -70,19 -146,12 -228,-21 -102,-41 -172,-109 -209,-204 -37,-95 -31,-202 18,-322 51,-126 125,-211 219,-255 94,-43 195,-43 302,0 94,38 159,96 195,174 21,46 28,104 21,171l-167 -25c6,-43 0,-81 -19,-116 -20,-34 -50,-60 -91,-76 -57,-23 -111,-21 -163,5 -52,26 -96,84 -134,175 -39,95 -49,171 -31,225 18,55 55,94 111,116 41,17 82,18 122,4 40,-14 78,-46 114,-97zm615 -312l-112 282c70,-37 138,-43 205,-17 34,13 62,31 85,54 22,24 37,48 43,73 6,24 7,49 2,75 -4,26 -16,63 -35,112l-130 324 -147 -58 117 -291c22,-57 34,-95 35,-113 0,-18 -5,-35 -15,-49 -11,-15 -27,-27 -48,-35 -25,-9 -50,-12 -74,-8 -24,4 -45,16 -64,37 -18,19 -37,53 -55,99l-110 276 -147 -57 304 -761 146 57zm468 621l-125 -75c36,-48 78,-78 125,-90 47,-12 107,-4 179,25 66,25 112,51 138,79 27,28 41,57 46,85 3,29 -7,75 -32,139l-70 169c-19,49 -30,85 -35,110 -4,26 -5,53 -3,84l-146 -56c0,-11 1,-27 3,-48 1,-10 1,-16 1,-19 -35,15 -68,23 -102,24 -33,1 -66,-4 -99,-17 -57,-22 -96,-55 -117,-98 -21,-44 -22,-89 -3,-136 12,-31 30,-57 55,-75 25,-19 53,-29 85,-32 32,-2 76,1 131,11 74,14 126,20 157,20l6 -15c11,-29 12,-51 3,-69 -10,-18 -34,-34 -73,-49 -26,-10 -48,-13 -67,-8 -19,5 -38,18 -57,41zm151 194c-21,0 -54,-5 -99,-12 -44,-7 -74,-9 -90,-6 -25,7 -41,20 -49,41 -8,21 -7,41 2,62 10,21 27,36 50,45 27,10 56,11 87,3 23,-6 41,-18 54,-35 8,-11 20,-33 33,-68l12 -30zm328 430l-148 -56 216 -553 137 52 -31 78c38,-28 69,-44 92,-48 24,-5 47,-2 71,7 34,13 63,34 86,64l-95 111c-19,-26 -39,-43 -60,-51 -20,-8 -41,-9 -59,-3 -19,6 -38,22 -58,48 -20,27 -48,87 -85,180l-66 171zm536 -236l-125 -74c36,-48 77,-78 124,-90 47,-13 107,-5 179,22 66,25 112,52 139,79 26,28 41,56 45,85 4,29 -6,75 -30,138l-68 171c-19,48 -30,85 -35,110 -4,25 -4,53 -2,84l-146 -55c0,-11 0,-27 2,-48 1,-10 1,-16 1,-19 -35,15 -68,23 -102,25 -33,1 -66,-4 -99,-16 -57,-22 -97,-55 -118,-98 -21,-43 -23,-89 -4,-136 12,-32 30,-57 55,-75 24,-19 52,-30 84,-33 33,-3 76,1 131,10 74,14 127,20 158,19l6 -15c11,-28 11,-52 2,-69 -10,-18 -34,-34 -73,-48 -26,-11 -49,-13 -67,-8 -19,5 -38,19 -57,41zm152 194c-21,-1 -54,-5 -98,-12 -45,-7 -75,-8 -91,-5 -24,7 -41,20 -49,41 -8,21 -7,41 3,62 10,21 26,35 50,45 27,9 56,11 87,3 23,-7 41,-19 53,-36 9,-11 21,-34 34,-69l11 -29zm826 165l-155 -28c5,-31 3,-57 -9,-77 -12,-22 -32,-37 -60,-48 -37,-13 -71,-12 -103,5 -31,17 -58,56 -81,116 -25,65 -31,116 -19,152 12,35 36,60 74,74 28,10 54,11 78,2 24,-10 47,-32 69,-69l136 80c-40,60 -88,99 -144,117 -55,19 -119,14 -191,-13 -82,-30 -138,-80 -166,-149 -30,-70 -27,-150 7,-241 35,-92 86,-154 154,-187 68,-33 144,-34 228,-3 68,25 116,60 146,104 29,44 41,99 36,165zm430 -29l-44 117 -101 -38 -85 225c-17,46 -26,73 -27,81 -1,9 1,16 6,24 5,7 13,13 22,17 14,4 36,7 65,7l-30 119c-40,2 -82,-5 -125,-21 -27,-10 -49,-23 -67,-40 -19,-17 -30,-34 -34,-52 -5,-18 -5,-40 0,-66 4,-17 15,-53 35,-105l91 -243 -68 -25 44 -117 68 25 42 -111 180 -32 -74 197 102 38zm285 536l140 78c-40,47 -85,77 -136,90 -52,14 -108,9 -170,-13 -98,-36 -158,-93 -182,-174 -18,-64 -13,-135 16,-212 33,-93 85,-156 153,-191 67,-35 139,-38 213,-11 84,30 139,81 168,153 28,73 20,165 -24,277l-372 -134c-15,44 -16,82 -2,114 15,33 38,55 72,68 23,8 46,9 66,2 21,-7 40,-23 58,-47zm64 -147c14,-43 16,-79 3,-109 -13,-30 -35,-51 -65,-62 -33,-11 -63,-9 -93,7 -30,15 -52,44 -67,84l222 80zm291 473l-149 -52 202 -559 138 49 -28 80c37,-30 67,-47 91,-52 22,-5 46,-3 70,6 34,12 64,33 88,63l-92 112c-19,-25 -40,-41 -62,-49 -20,-8 -41,-8 -59,-2 -18,6 -37,23 -56,50 -19,27 -46,87 -81,182l-62 172z"/>
  <g id="_822278118272">
   <rect class="fil3" transform="matrix(0.208105 -0.208105 0.232588 0.232588 7699.78 1691.32)" width="1998" height="1788"/>
   <circle class="fil3" cx="7727" cy="1306" r="177"/>
   <circle class="fil3" cx="8537" cy="2053" r="177"/>
   <circle class="fil3" cx="8481" cy="1283" r="177"/>
   <circle class="fil3" cx="7694" cy="2049" r="177"/>
  </g>
  <path class="fil4" d="M1914 7222l131 310c56,133 77,235 64,306 -16,91 -65,153 -146,188 -50,21 -99,26 -147,14 -49,-12 -91,-39 -128,-81 -37,-42 -78,-117 -124,-224l-34 -84 -335 141 -41 116 -136 -322 122 62 277 -117c-1,-5 -3,-10 -4,-12 -14,-33 -35,-62 -62,-86l9 -11c31,23 51,47 62,71l11 25 2 5 34 -14c-3,-11 -4,-19 -6,-23 -21,-49 -50,-83 -87,-102l8 -12c64,6 109,40 136,103l5 11 340 -144 49 -120zm24 257l-348 147 3 9 7 18c1,1 2,4 5,8l309 -130 32 75c24,59 37,104 36,132 0,29 -12,59 -38,89 16,-27 24,-55 22,-84 -1,-30 -12,-68 -31,-115l-30 -72 -293 124c39,91 81,153 126,185 45,31 96,34 154,10 64,-28 103,-66 116,-116 14,-51 3,-118 -33,-202 -9,-22 -21,-48 -37,-78zm182 438c-2,35 -17,68 -45,100 -28,31 -64,57 -109,76 -100,42 -188,34 -266,-25 -58,-45 -117,-138 -177,-280 -10,-24 -17,-44 -23,-61l-287 121 -82 164 -147 -347 11 -27 137 326 66 -131 313 -132c14,41 31,85 50,129 51,120 109,199 176,239 66,40 143,42 230,5 36,-15 65,-34 87,-57 22,-22 44,-55 66,-100zm458 806l-18 -5c-79,-19 -161,-25 -248,-17 9,-10 15,-17 19,-22 42,-51 65,-94 67,-130 2,-36 -14,-91 -49,-165 -16,-34 -36,-74 -61,-120l-315 148 20 42 279 -132c19,33 36,65 51,97 28,58 42,103 42,137 1,33 -11,69 -36,107 1,-9 2,-15 3,-19 12,-51 17,-86 14,-105 -2,-19 -15,-52 -38,-101 -6,-14 -20,-40 -40,-76l-7 -14 -260 123 60 126 163 31 -292 139 71 -142 -88 -184 -382 180 20 43 350 -166 70 148 -8 26 -71 -150 -333 158c44,93 82,156 114,189 32,33 72,52 122,55l79 7c3,0 10,1 19,1 -44,36 -77,69 -99,101 -22,32 -43,77 -64,136l-362 -762 128 66 304 -144c-23,-37 -51,-65 -85,-87l10 -16c33,18 63,50 92,95l32 -16c-3,-8 -5,-14 -6,-16 -23,-47 -59,-81 -111,-103 82,-13 140,18 175,92l292 -139 33 -142 344 726zm-32 54l-9 -2c-100,-20 -180,-27 -240,-22l10 -18c84,-3 167,6 248,26l-9 16zm-322 -92l-301 142 1 -20 300 -143 0 21zm-460 563l-78 -6 -353 -742 13 -20 354 745 54 3c29,-95 72,-171 128,-230l2 25c-46,53 -84,122 -114,209l-6 16zm798 -346c114,75 202,174 264,297 48,95 67,184 57,266 -10,83 -48,140 -111,172 -52,26 -108,29 -169,9 -60,-20 -117,-61 -170,-121 -70,73 -132,157 -186,251 -54,94 -89,178 -105,253l-8 -8c-57,-56 -122,-105 -196,-148l-12 -7 20 -14c159,-116 286,-230 381,-342l5 -7c-30,-23 -62,-59 -97,-107l-3 -5 -252 127 -67 182 -175 -348 12 -20 162 321 54 -150 271 -137 10 13c31,49 62,86 95,114 4,-6 6,-9 8,-10l15 -17c2,-1 4,-3 7,-7 -22,-24 -57,-72 -106,-145l-5 -7 -300 152 -41 117 -150 -298 124 48 226 -114 -3 -5c-19,-23 -38,-43 -56,-61l-4 -4 10 -13c18,16 31,29 39,39l27 31 4 5 35 -17c-13,-27 -36,-57 -68,-91l-6 -6c6,-3 24,-6 50,-9 3,0 15,-2 35,-5 2,-1 5,-1 8,-2 8,21 16,37 22,48 5,12 12,23 18,33l332 -167c2,-27 2,-54 -1,-80l0 -6zm119 194l-363 182c7,14 14,26 22,36l331 -167c20,21 38,49 55,84 45,87 46,161 4,222 11,-47 15,-86 12,-116 -2,-30 -13,-63 -30,-98 -14,-27 -29,-49 -45,-67l-318 160 5 7c61,80 119,133 176,158 56,25 112,24 167,-3 50,-26 81,-65 94,-121 13,-55 5,-112 -25,-171 -24,-47 -52,-82 -85,-106zm-240 529c-78,74 -143,170 -196,287 -32,72 -53,153 -62,244 -79,-89 -169,-164 -271,-226l-7 -4 4 -19c99,58 186,128 262,212 20,-173 107,-344 259,-513l10 -10c120,110 234,138 341,85 44,-23 83,-64 118,-125 -19,66 -60,115 -124,147 -103,52 -214,26 -334,-78zm615 57l379 683c-51,-7 -90,-10 -117,-11 -28,0 -69,4 -125,12l-16 2c44,-63 67,-113 68,-151 3,-38 -15,-90 -52,-157l-22 -37 -35 -64 -13 -25 -308 172 21 39 273 -151 11 18c16,27 33,55 50,86 50,89 58,159 24,206 9,-33 10,-64 3,-93 -7,-29 -24,-70 -54,-123 -10,-19 -25,-42 -43,-69l-255 143 55 99 171 43 -277 154 47 -171 -83 -149 -330 184 -39 129 -179 -322 144 60 282 -157c-19,-33 -48,-56 -87,-67l6 -20c43,9 75,36 98,77l31 -17c-4,-9 -7,-16 -9,-20 -23,-41 -60,-67 -109,-78l8 -11c68,-12 124,14 167,78l278 -155 37 -137zm366 756c-108,-21 -197,-24 -267,-6l1 -19c78,-22 169,-20 271,7l-5 18zm-347 -73l-284 159 0 -24 284 -158 0 23zm-264 -8l-75 -135 -282 157 -79 196 -212 -381 8 -26 201 361 65 -161 308 -171 73 131 -7 29zm1050 737l-19 -3c-79,-13 -162,-11 -248,5 8,-11 13,-18 17,-23 38,-55 56,-100 56,-136 -2,-36 -23,-90 -64,-160 -19,-33 -43,-71 -72,-115l-300 177 24 40 265 -157c22,32 42,62 60,92 33,55 51,100 55,133 3,33 -6,69 -28,109 1,-8 2,-14 3,-19 6,-51 8,-86 4,-105 -4,-18 -20,-51 -47,-98 -8,-13 -24,-38 -46,-72l-10 -13 -247 146 71 120 165 16 -279 164 58 -147 -103 -176 -365 214 24 40 333 -197 84 142 -7 26 -83 -142 -318 187c52,88 96,148 131,178 34,30 76,45 125,44l80 0c4,0 10,-1 19,-1 -41,40 -71,76 -90,109 -19,34 -36,81 -51,142l-428 -727 133 54 290 -171c-26,-34 -56,-60 -92,-78l8 -17c34,15 68,44 100,86l31 -18c-4,-8 -6,-14 -8,-16 -26,-44 -66,-76 -119,-93 79,-20 141,5 182,76l279 -164 19 -144 408 692zm-28 57l-8 -1c-102,-11 -182,-11 -241,0l8 -19c84,-11 167,-10 250,3l-9 17zm-328 -63l-287 169 -1 -21 287 -169 1 21zm-408 602l-78 1 -418 -709 11 -21 419 711 54 -2c21,-96 56,-176 107,-240l4 25c-41,57 -73,129 -95,218l-4 17zm1224 162l-16 0c-92,6 -179,16 -263,32l-19 3 0 -11c57,-51 93,-106 107,-166 15,-60 5,-115 -28,-165 -35,-54 -87,-83 -157,-88 -87,-8 -201,34 -339,124 -119,78 -199,159 -240,245 -40,86 -37,166 12,239 38,60 89,94 151,103 62,10 131,-5 209,-47 19,-9 32,-7 40,5 11,16 3,33 -24,51 -42,27 -89,45 -145,55 -118,21 -217,-30 -297,-152 -71,-109 -90,-221 -55,-336 35,-115 117,-215 248,-300 121,-78 244,-111 369,-97 125,13 220,70 285,169 31,47 54,108 71,184 8,39 19,69 32,90 15,22 34,38 58,48l1 14zm-229 -112c6,-58 -2,-105 -24,-138 -71,-109 -210,-95 -418,41 -94,61 -165,125 -212,191 -47,66 -64,128 -53,186l-7 4c-22,-56 -9,-121 38,-193 47,-73 121,-142 222,-208 218,-143 366,-154 443,-35 27,41 33,90 19,147l-8 5zm-299 489c-109,61 -207,84 -296,68 -87,-16 -161,-71 -222,-163 -45,-71 -67,-150 -63,-239l5 -3c0,77 24,153 74,229 54,84 125,134 213,152 43,8 85,8 125,0 40,-9 88,-29 145,-60l15 -8 4 24zm527 -311l-17 1c-108,5 -203,15 -285,30l-3 -23 20 -3c58,-8 107,-14 146,-17l123 -8 15 0 1 20zm540 678c-9,1 -16,2 -19,2l-104 9c-36,5 -79,14 -127,29l-4 1 0 -9 7 -8c39,-44 60,-84 63,-119 3,-34 -11,-74 -42,-120 -13,-19 -27,-36 -41,-54l-6 -8 -672 464 -17 120 -195 -283 132 37 617 -426 -29 -45c-28,-43 -58,-67 -88,-74 -29,-6 -66,5 -111,31l-11 -17c51,-28 94,-39 127,-32 34,7 66,34 99,81l24 38 5 7 30 -21c-11,-23 -24,-44 -37,-63 -37,-53 -74,-84 -112,-92 -38,-9 -84,3 -138,36l-5 -7c45,-58 91,-129 136,-215l4 -8 514 746zm-13 67c-55,-3 -137,8 -242,35l-8 2 2 -22 7 -2c107,-28 186,-40 239,-34l6 0 -4 21zm-210 -99c0,-47 -15,-91 -44,-134 -7,-9 -15,-19 -24,-27l-621 432 -49 179 -218 -316 6 -26 205 296 38 -148 646 -446 25 32c27,41 44,72 49,92 4,22 1,43 -13,66zm246 50l210 289 -143 -22 -634 462 -9 124 -206 -284 132 34 635 -462 15 -141zm196 342l-108 -18 -621 453 -39 185 -230 -316 5 -27 214 295 33 -150 632 -460 118 19 -4 19zm283 552l-2 -15c-10,-54 -28,-97 -53,-128 -84,-102 -226,-71 -427,94 -146,120 -218,232 -215,334l-9 0c-5,-62 9,-119 40,-172 31,-53 86,-111 162,-174 216,-176 369,-208 463,-95 42,52 55,104 41,156zm35 -238c77,95 104,200 79,315 -25,115 -98,221 -217,319 -113,93 -226,139 -339,138 -113,0 -208,-48 -285,-142 -61,-74 -91,-159 -91,-256 0,-143 68,-270 205,-383 117,-96 235,-143 351,-141 117,1 216,52 297,150zm-50 41c-108,-132 -278,-103 -507,86 -213,174 -266,326 -160,456 50,60 116,84 198,69 82,-15 178,-67 286,-156 123,-100 196,-185 220,-256 24,-73 11,-140 -37,-199zm173 169c19,77 9,160 -29,245 -39,86 -100,163 -185,233 -125,102 -252,153 -381,153 -129,-1 -236,-53 -321,-156 -54,-66 -83,-146 -85,-240l3 -3c4,78 36,152 96,225 80,98 182,148 307,151 125,2 244,-44 358,-138 85,-69 148,-145 188,-225 40,-81 54,-161 43,-239l6 -6zm749 794c-61,-22 -106,-30 -135,-25 -45,8 -96,38 -152,90l-36 34 -483 455 -88 -93 260 -731 -298 280 -25 23 -74 80c-29,42 -41,84 -34,126l1 8c-30,-66 0,-141 91,-227l52 -48 300 -283 31 -83 -317 297c-100,94 -160,162 -179,205 -19,43 -13,95 19,156l-6 96 -279 -298 6 -22 258 275 4 -57 -241 -256c59,30 108,39 149,28 41,-11 94,-47 160,-109l439 -413 -7 -130 261 277 -126 -28 -269 753 66 -63 230 -644 124 28 0 20 -110 -25 -214 594 256 -241 29 -28c64,-60 101,-105 114,-135 11,-31 8,-76 -11,-136l234 250zm-23 57l-26 6c-33,-23 -63,-30 -90,-23 -27,6 -62,30 -104,69l-566 532 -111 -118 8 -21 104 111 545 -513c52,-49 95,-76 127,-82 33,-6 71,8 113,39z"/>
  <path class="fil4" d="M11331 12577c12,42 29,82 50,118 41,70 64,114 72,133l2 6c-6,-2 -10,-3 -13,-5 -45,-16 -76,-26 -96,-29 -19,-4 -41,-3 -65,1 -60,12 -108,41 -144,87 -32,42 -48,87 -46,134 1,47 20,84 56,111 67,52 151,36 254,-46l102 -82c146,-117 278,-130 395,-40 65,50 100,117 107,201 6,83 -19,161 -75,234 -35,45 -81,91 -138,136l-71 57c-29,23 -50,43 -64,62 -19,24 -31,55 -36,93l-12 -2c-36,-106 -80,-196 -132,-268l11 -8c69,40 137,52 204,37 67,-15 127,-56 179,-124 41,-54 62,-106 61,-156 -1,-50 -21,-92 -63,-124 -48,-37 -105,-46 -170,-27 -47,14 -117,63 -212,146 -73,64 -140,99 -200,107 -60,7 -121,-12 -182,-60 -63,-48 -96,-111 -101,-186 -4,-75 22,-149 78,-222 36,-46 86,-95 151,-144 30,-23 51,-41 62,-56 15,-19 24,-46 29,-79l7 -5zm54 -17l5 13c15,37 31,71 48,103 36,72 57,114 61,122l2 7 -17 9 -4 -6c-17,-32 -39,-75 -64,-130l-48 -102 -2 -7 19 -9zm-16 266c-80,8 -140,37 -179,88 -24,30 -34,62 -33,96 3,33 18,61 45,82 29,22 76,25 138,8l7 -2 2 7c-64,34 -119,34 -163,0 -31,-24 -48,-55 -50,-92 -2,-38 10,-75 38,-110 27,-34 57,-59 91,-73 35,-15 70,-18 106,-10l-2 6zm344 46c83,-22 160,-6 232,49 76,59 118,138 124,238 8,100 -21,192 -86,276 -33,43 -68,79 -104,106l-97 78c-23,18 -44,40 -64,65 -18,23 -29,47 -34,74l-23 -6c6,-29 17,-54 34,-76 18,-23 43,-48 74,-73l94 -75c37,-30 71,-65 103,-105 61,-81 88,-168 81,-263 -8,-96 -47,-171 -120,-226 -60,-48 -131,-67 -210,-59l-4 -3zm-157 559c84,41 165,40 244,-1l5 4c-79,57 -165,62 -258,15l9 -18zm-251 -75l27 -12c34,5 83,-18 148,-70l98 -78c67,-52 114,-85 143,-98 28,-12 58,-14 89,-5l0 7c-35,1 -65,9 -91,22 -25,14 -68,45 -128,94 -87,71 -149,115 -186,133 -37,18 -70,21 -100,7zm573 -1507l7 16c37,83 78,161 123,234l11 16 -10 5c-70,-35 -134,-49 -195,-41 -61,8 -109,36 -145,85 -37,52 -46,112 -26,179 24,85 104,176 239,273 116,83 220,129 315,136 95,7 168,-25 220,-97 42,-57 56,-116 42,-177 -13,-62 -53,-122 -119,-179 -16,-14 -19,-28 -10,-40 11,-16 30,-14 57,5 39,28 74,67 103,116 62,102 51,213 -36,332 -76,106 -174,164 -295,172 -119,8 -242,-33 -369,-125 -117,-84 -192,-188 -224,-310 -32,-122 -14,-231 56,-328 33,-45 82,-90 146,-131 35,-22 59,-44 73,-63 16,-22 24,-46 24,-71l13 -7zm-22 255c-57,15 -97,39 -121,72 -76,105 -13,231 189,377 91,66 177,109 255,129 79,20 143,14 193,-17l6 4c-44,41 -109,53 -194,35 -85,-17 -177,-62 -275,-133 -211,-153 -275,-287 -191,-402 28,-40 71,-63 130,-71l8 6zm565 105c96,79 153,163 169,251 17,89 -7,178 -72,267 -49,69 -116,116 -200,145l-5 -3c71,-28 135,-78 188,-152 58,-81 80,-166 65,-254 -7,-44 -22,-82 -45,-117 -23,-35 -59,-73 -108,-114l-13 -12 21 -11zm-481 -382l7 14c44,100 87,185 131,257l-20 11 -11 -18c-28,-51 -51,-95 -67,-131l-52 -111 -6 -15 18 -7zm-52 -50l191 -300 30 141 275 176c8,-8 16,-19 26,-32l-273 -174 -25 -113 20 -6 23 108 266 169 15 -20c24,-30 46,-60 65,-91 29,-44 51,-83 67,-118l-294 -187 -121 32 188 -295 29 142 663 423 119 -32 -187 293 -19 -135 -270 -172c-14,41 -33,80 -57,118 -23,36 -49,71 -77,107l-6 8 269 172 188 -28 -210 330 -28 6 199 -311 -151 26 -293 -187 14 -17c40,-54 68,-92 84,-118 26,-41 43,-80 50,-117l-22 -15c-20,44 -46,92 -80,145 -18,29 -32,49 -42,61l-47 61c-2,2 -5,6 -10,13l315 202 121 -38 -188 295 -20 -133 -278 -177c-23,35 -27,72 -13,112l-15 9c-15,-44 -11,-88 12,-132l-24 -15c-30,48 -36,97 -18,147l-12 6c-45,-64 -55,-128 -30,-191l-287 -183 -132 35zm506 -714l22 106 649 414 188 -28 -210 330 -27 5 198 -310 -151 24 -663 -424 -26 -115 20 -2zm414 -471l-12 8c-48,28 -81,60 -101,95 -65,115 15,237 241,366 166,94 296,121 390,81l3 9c-55,26 -114,34 -175,24 -61,-10 -135,-40 -221,-89 -243,-139 -327,-272 -255,-399 33,-58 77,-90 130,-95zm-234 53c60,-107 149,-169 266,-187 117,-18 242,12 377,88 128,73 211,162 251,268 40,106 30,212 -31,318 -48,84 -116,143 -207,178 -133,51 -277,33 -432,-56 -132,-74 -218,-168 -259,-277 -40,-110 -28,-221 35,-332zm56 32c-84,148 3,297 262,444 240,137 402,131 485,-15 39,-68 37,-138 -7,-210 -42,-71 -126,-142 -248,-212 -138,-78 -244,-116 -318,-113 -78,4 -135,39 -174,106zm96 -223c66,-45 146,-66 240,-60 94,5 188,35 284,89 141,81 234,181 280,302 46,121 36,239 -30,356 -43,74 -107,130 -194,166l-4 -2c71,-32 130,-88 176,-170 63,-110 73,-224 30,-342 -42,-117 -128,-213 -256,-286 -96,-54 -189,-86 -279,-95 -90,-8 -170,7 -239,46l-8 -4zm536 -691l-13 8c-46,29 -79,61 -99,97 -62,116 21,237 250,360 168,91 299,115 392,72l4 10c-56,27 -114,36 -175,27 -61,-9 -136,-37 -223,-83 -246,-133 -334,-264 -264,-393 32,-59 74,-92 128,-98zm-234 58c59,-108 146,-172 262,-193 117,-20 243,6 380,79 128,70 214,157 256,262 43,106 35,212 -23,319 -46,85 -113,146 -203,182 -132,54 -277,40 -433,-45 -134,-72 -222,-163 -265,-272 -43,-108 -34,-220 26,-332zm58 30c-81,151 9,297 272,439 243,131 404,122 484,-26 38,-69 33,-139 -11,-210 -45,-71 -130,-139 -253,-206 -140,-76 -247,-111 -322,-106 -77,5 -134,41 -170,109zm90 -224c65,-48 145,-70 239,-67 93,3 189,32 286,84 143,77 238,175 287,295 49,120 41,239 -22,357 -41,75 -105,132 -190,170l-4 -2c70,-33 127,-91 172,-174 60,-111 68,-225 22,-342 -45,-117 -133,-210 -263,-280 -97,-52 -191,-83 -281,-89 -91,-6 -170,11 -238,52l-8 -4zm87 -239l156 -325 48 141 728 349 3 -5 13 -24 3 -6 -723 -347 -40 -109 20 -3 36 99 715 344c12,-20 22,-39 32,-58 34,-72 44,-134 30,-187 -14,-52 -55,-102 -122,-150 144,16 250,13 317,-10l-342 710 -31 -130 -711 -342 -132 53zm1242 -361l47 60 -341 711 -27 8 346 -721 -33 -39c-86,20 -173,27 -263,21l-9 -1 19 -18 14 1c82,1 161,-5 238,-20l9 -2zm-586 -1027c21,39 47,73 75,103 56,59 90,97 101,113l3 5c-6,0 -10,0 -14,0 -47,-6 -80,-9 -99,-8 -20,2 -41,7 -63,17 -56,24 -96,64 -121,117 -22,49 -27,96 -14,141 12,45 39,77 80,95 76,36 156,1 236,-102l81 -103c116,-148 241,-191 375,-130 75,34 125,91 151,171 25,80 19,161 -19,245 -24,52 -59,107 -104,164l-56 72c-23,29 -39,54 -48,75 -13,28 -17,61 -14,99l-12 1c-59,-96 -123,-173 -190,-231l9 -11c76,23 146,20 207,-11 62,-30 111,-83 146,-161 28,-62 36,-117 24,-166 -12,-49 -42,-84 -91,-106 -55,-26 -112,-21 -171,13 -42,25 -100,88 -173,190 -56,79 -113,129 -170,150 -57,21 -120,16 -191,-16 -72,-33 -119,-86 -140,-159 -22,-72 -14,-150 24,-234 25,-53 63,-112 115,-174 24,-30 40,-52 47,-68 10,-23 14,-51 9,-85l7 -6zm49 -29l7 11c24,33 47,63 70,89 53,63 82,98 88,106l4 6 -15 13 -5 -5c-25,-27 -55,-65 -92,-113l-70 -87 -4 -6 17 -14zm45 263c-76,26 -128,68 -155,126 -16,35 -19,69 -9,101 10,32 30,55 61,70 35,15 80,7 138,-24l6 -4 3 6c-54,49 -107,62 -159,38 -35,-16 -59,-43 -70,-78 -10,-36 -6,-75 13,-116 18,-39 42,-70 72,-92 30,-23 64,-33 100,-33l0 6zm345 -34c76,-41 155,-42 237,-5 88,40 146,107 176,203 30,95 23,192 -21,288 -23,50 -48,92 -77,128l-77 97c-18,23 -34,49 -47,78 -12,27 -17,53 -17,80l-23 -1c-1,-29 4,-56 15,-81 13,-27 32,-57 56,-89l74 -94c29,-37 54,-80 76,-126 41,-92 48,-183 19,-275 -29,-90 -85,-155 -168,-193 -70,-32 -143,-34 -218,-8l-5 -2zm-24 580c90,20 169,1 237,-57l6 3c-64,74 -147,98 -248,74l5 -20zm-262 -16l23 -17c35,-3 77,-37 128,-102l78 -99c53,-66 92,-109 117,-128 25,-18 53,-27 86,-25l0 6c-33,10 -60,25 -82,44 -23,19 -57,58 -104,120 -68,88 -118,146 -150,172 -33,26 -65,36 -96,29z"/>
  <circle class="fil5" cx="8116" cy="6732" r="1075"/>
 </g>
</svg>
