<?xml version="1.0" encoding="UTF-8"?>
<!DOCTYPE svg PUBLIC "-//W3C//DTD SVG 1.1//EN" "http://www.w3.org/Graphics/SVG/1.1/DTD/svg11.dtd">
<!-- Creator: CorelDRAW X7 -->
<svg xmlns="http://www.w3.org/2000/svg" xml:space="preserve" width="41.3594mm" height="41.3593mm" version="1.1" style="shape-rendering:geometricPrecision; text-rendering:geometricPrecision; image-rendering:optimizeQuality; fill-rule:evenodd; clip-rule:evenodd"
viewBox="0 0 540 540"
 xmlns:xlink="http://www.w3.org/1999/xlink"
 aria-hidden="true"
 focusable="false"
 data-prefix="fas"
 data-icon="phone"
 role="img">
 <defs>
  <style type="text/css">
   <![CDATA[
    .fil0 {fill:white}
   ]]>
  </style>
 </defs>
 <g id="Layer_x0020_1">
  <metadata id="CorelCorpID_0Corel-Layer"/>
  <g id="_411714642608">
   <path class="fil0" d="M514 520l25 -109c3,-12 -3,-25 -14,-29l-118 -51c-11,-4 -23,-1 -30,7l-52 64c-81,-38 -148,-104 -187,-187l64 -52c8,-7 11,-19 7,-29l-51 -119c-5,-11 -17,-17 -29,-14l-109 25c-12,3 -20,13 -20,25 0,270 219,489 489,489 12,0 22,-8 25,-20z"/>
  </g>
 </g>
</svg>
