<?xml version="1.0" encoding="UTF-8"?>
<!DOCTYPE svg PUBLIC "-//W3C//DTD SVG 1.1//EN" "http://www.w3.org/Graphics/SVG/1.1/DTD/svg11.dtd">
<!-- Creator: CorelDRAW X7 -->
<svg xmlns="http://www.w3.org/2000/svg" xml:space="preserve" width="60.2138mm" height="48.9047mm" version="1.1" style="shape-rendering:geometricPrecision; text-rendering:geometricPrecision; image-rendering:optimizeQuality; fill-rule:evenodd; clip-rule:evenodd"
viewBox="0 0 5785 4698"
 xmlns:xlink="http://www.w3.org/1999/xlink"
 aria-hidden="true"
 focusable="false"
 data-prefix="fab"
 data-icon="twitter"
 role="img">
 <defs>
  <style type="text/css">
   <![CDATA[
    .fil0 {fill:#DE0472}
   ]]>
  </style>
 </defs>
 <g id="Layer_x0020_1">
  <metadata id="CorelCorpID_0Corel-Layer"/>
  <g id="_411716180672">
   <path class="fil0" d="M5190 1171c4,51 4,103 4,154 0,1567 -1193,3373 -3373,3373 -672,0 -1296,-194 -1821,-532 95,11 187,15 286,15 555,0 1065,-188 1472,-507 -521,-11 -958,-352 -1108,-822 73,11 146,18 224,18 106,0 212,-14 312,-40 -544,-110 -951,-587 -951,-1164l0 -14c158,88 341,143 536,150 -320,-213 -529,-576 -529,-987 0,-220 59,-422 162,-598 583,719 1461,1189 2444,1240 -18,-88 -29,-180 -29,-271 0,-654 528,-1186 1185,-1186 342,0 650,143 867,374 268,-51 525,-150 752,-286 -88,275 -275,507 -521,653 239,-25 470,-91 683,-183 -162,235 -364,444 -595,613l0 0z"/>
  </g>
 </g>
</svg>
